<?xml version="1.0" encoding="utf-8"?>
<!-- Generator: Adobe Illustrator 16.0.0, SVG Export Plug-In . SVG Version: 6.00 Build 0)  -->
<!DOCTYPE svg PUBLIC "-//W3C//DTD SVG 1.1//EN" "http://www.w3.org/Graphics/SVG/1.1/DTD/svg11.dtd">
<svg version="1.1" id="레이어_1" xmlns="http://www.w3.org/2000/svg" xmlns:xlink="http://www.w3.org/1999/xlink" x="0px"
	 y="0px" width="625px" height="110px" viewBox="0 0 625 110" enable-background="new 0 0 625 110" xml:space="preserve">
<g>
	<g>
		<path fill-rule="evenodd" clip-rule="evenodd" fill="none" d="M313.208,149.227c-111.361,0-222.723-0.013-334.083,0.07
			c-2.812,0.002-3.45-0.633-3.446-3.445c0.094-60.367,0.092-120.734-0.001-181.102c-0.004-2.568,0.504-3.071,3.072-3.07
			c222.972,0.077,445.945,0.077,668.917,0c2.567,0,3.076,0.502,3.071,3.07c-0.092,60.492-0.092,120.985,0,181.477
			c0.005,2.567-0.504,3.073-3.071,3.071C536.18,149.215,424.694,149.227,313.208,149.227z M479.641,62.81
			c0.197,0.084,0.395,0.167,0.592,0.251c-1.405,7.98-2.747,15.973-4.23,23.939c-1.87,10.039-1.92,10.029,8.088,9.996
			c0.499-0.002,1,0.006,1.499-0.006c5.358-0.129,8.35-2.633,9.29-7.876c1.411-7.866,2.764-15.742,4.157-23.611
			c2.55-14.387,5.074-28.778,7.698-43.15c0.535-2.934-0.222-4.089-3.371-3.93c-4.488,0.226-9.001,0.196-13.492,0.006
			c-2.752-0.117-4.3,0.886-5.558,3.345c-5.574,10.9-11.323,21.711-17.03,32.545c-1.134,2.152-2.355,4.257-3.537,6.385
			c-1.175-1.936-1.531-3.722-1.848-5.515c-1.955-11.067-3.966-22.125-5.803-33.211c-0.432-2.605-1.516-3.632-4.174-3.539
			c-4.493,0.158-9.005,0.219-13.491-0.018c-3.192-0.169-4.286,1.102-4.807,4.15c-3.72,21.787-7.576,43.551-11.473,65.308
			c-1.638,9.144-1.729,9.127,7.507,9.118c8.34-0.009,10.543-1.922,11.928-10.113c1.47-8.688,3.032-17.362,4.741-27.111
			c0.438,2.424,0.707,3.76,0.92,5.104c1.11,7.029,2.162,14.069,3.341,21.088c0.252,1.501,0.147,3.29,2.205,3.963
			c6.466,2.111,13.014-0.541,16.137-6.576C472.479,76.493,476.068,69.656,479.641,62.81z M320.88,24.441
			c0-3.121-0.11-6.247,0.033-9.361c0.125-2.718-0.955-3.886-3.688-3.83c-4.242,0.087-8.488-0.015-12.732,0.023
			c-4.539,0.04-4.859,0.354-4.864,4.95c-0.019,18.6,0.034,37.2-0.029,55.799c-0.026,7.973,0.624,15.995-1.104,23.883
			c-0.546,2.493,0.627,3.151,2.757,3.149c5.119-0.007,10.236,0.021,15.354-0.027c0.845-0.008,2.12-0.049,2.453-0.56
			c1.273-1.948,2.44-1.215,4.032-0.464c11.329,5.346,24.814-0.155,28.644-12.016c4.097-12.696,4.07-25.598-0.138-38.284
			c-4.167-12.556-16.179-17.503-28.263-11.802c-2.435,1.148-2.47,0.088-2.454-1.725C320.908,30.933,320.889,27.687,320.88,24.441z
			 M188.89,66.402c-0.062,0-0.125,0-0.187,0c0-9.238,0.022-18.477-0.009-27.715c-0.016-4.744-0.313-5.004-5.164-5.031
			c-3.62-0.02-7.241-0.018-10.861-0.001c-4.992,0.023-5.109,0.125-5.117,4.971c-0.016,10.985-0.022,21.972,0.002,32.958
			c0.006,2.783-0.365,5.474-1.512,8.025c-0.917,2.04-2.233,3.8-4.648,3.799c-2.538-0.001-4.054-1.758-5.01-3.923
			c-1.079-2.443-1.238-5.062-1.234-7.705c0.019-11.11-0.137-22.224,0.083-33.331c0.077-3.874-1.324-5.081-5.005-4.851
			c-3.855,0.241-7.747,0.227-11.604,0.004c-3.54-0.205-4.854,1.049-4.796,4.689c0.178,11.233,0.098,22.471,0.043,33.706
			c-0.017,3.383,0.156,6.735,0.755,10.061c2.359,13.095,17.051,20.988,29.09,15.642c1.971-0.874,3.953-2.923,5.819,0.313
			c0.264,0.457,1.633,0.37,2.492,0.377c4.369,0.034,8.742-0.091,13.107,0.053c2.927,0.097,3.873-1.003,3.819-3.955
			C188.782,85.128,188.89,75.765,188.89,66.402z M290.223,61.496c0-7.866-0.133-15.735,0.062-23.597
			c0.083-3.347-1.188-4.427-4.373-4.286c-3.988,0.177-7.996,0.183-11.983-0.002c-3.341-0.155-4.611,0.978-4.549,4.496
			c0.193,11.109,0.059,22.223,0.076,33.336c0.006,3.035-0.389,5.984-1.754,8.723c-0.941,1.889-2.382,3.358-4.607,3.314
			c-2.048-0.039-3.393-1.493-4.349-3.169c-1.338-2.342-1.61-4.942-1.606-7.6c0.015-11.612-0.064-23.225,0.047-34.836
			c0.028-2.989-0.877-4.371-4.045-4.259c-4.614,0.164-9.239,0.079-13.858,0.036c-2.245-0.021-3.513,0.733-3.498,3.231
			c0.083,13.733-0.441,27.496,0.277,41.195c0.896,17.101,16.06,25.675,31.67,18.573c0.842-0.383,1.801-1.392,2.491,0.081
			c0.906,1.933,2.606,1.651,4.192,1.664c4.12,0.032,8.249-0.154,12.358,0.062c3.384,0.178,4.369-1.168,4.079-4.405
			C289.881,83.222,290.29,72.353,290.223,61.496z M512.029,96.996c0.999,0,2,0.007,2.999-0.002
			c6.407-0.052,9.032-2.179,10.286-8.484c0.683-3.429,1.267-6.879,1.813-10.332c1.538-9.733,1.521-9.735,11.479-9.968
			c0.251-0.006,0.5-0.006,0.75-0.017c17.08-0.748,28.166-9.877,30.921-25.458c2.425-13.713-6.138-24.15-19.965-24.241
			c-9.371-0.062-18.745,0.072-28.115-0.063c-2.763-0.04-3.993,0.865-4.474,3.646c-3.89,22.516-7.914,45.009-11.859,67.516
			C504.567,96.988,504.618,96.997,512.029,96.996z M38.897,40.435c-3.854-9.279-7.364-17.539-10.696-25.87
			c-1.029-2.572-2.52-3.671-5.339-3.549c-4.488,0.193-8.99,0.033-13.486,0.054c-4.559,0.022-4.739,0.291-2.877,4.305
			c6.567,14.158,13.115,28.325,19.75,42.451c1.305,2.778,1.981,5.564,1.942,8.65c-0.107,8.491-0.039,16.985-0.036,25.479
			c0.002,6.451,0.004,6.451,6.264,6.456c1.499,0.002,2.998,0.004,4.496,0c7.87-0.023,10.395-2.495,10.411-10.229
			c0.015-7.244,0.068-14.488-0.027-21.73c-0.039-2.945,0.543-5.633,1.798-8.306C57.732,44.02,64.275,29.85,70.848,15.694
			c2.028-4.368,1.898-4.601-2.761-4.624c-4.246-0.022-8.506,0.203-12.734-0.07c-3.394-0.219-5.187,0.931-6.396,4.192
			C45.925,23.368,42.525,31.408,38.897,40.435z M72.411,66.317c-0.235,3.242,0.274,6.724,0.865,10.155
			c2.741,15.911,12.171,24.028,31.003,22.311c13.59-1.238,19.7-7.263,22.433-20.635c1.308-6.399,1.327-12.848,0.753-19.368
			c-1.372-15.596-9.906-24.702-25.522-25.662c-13.257-0.815-24.623,5.055-28.067,19.93C72.888,57.316,72.276,61.639,72.411,66.317z
			 M397.201,71.422c0-0.006,0-0.012,0-0.018c4.87,0,9.74-0.064,14.606,0.026c2.53,0.048,3.644-0.937,3.582-3.522
			c-0.092-3.866,0.008-7.724-0.722-11.563c-2.635-13.864-13.016-22.849-27.155-23.402c-13.247-0.518-23.936,7.789-27.561,21.345
			c-1.408,5.267-1.439,10.623-1.166,15.99c1.027,20.216,16.817,32.342,36.524,27.907c9.461-2.129,16.714-7.047,19.549-16.987
			c0.813-2.852-0.14-3.972-2.99-3.942c-4.618,0.049-9.238,0.048-13.857-0.005c-2.119-0.023-3.286,0.745-4.183,2.85
			c-1.947,4.568-7.664,5.323-11.162,1.756c-1.854-1.891-2.363-4.331-2.97-6.757c-0.628-2.512,0.068-3.775,2.898-3.709
			C387.463,71.505,392.333,71.422,397.201,71.422z M566.438,78.758c-0.018,8.84,3.562,14.702,10.746,17.604
			c11.396,4.601,26.411,0.906,34.117-8.641c6.236-7.728,9.973-21.101,0.728-29.98c-1.652-1.588-0.307-1.95,0.701-2.673
			c5.018-3.591,7.956-8.578,9.274-14.492c2.078-9.311-1.922-17.854-9.792-21.317c-15.63-6.877-35.311,3.529-38.492,20.265
			c-0.451,2.375,0.24,3.292,2.537,3.285c4.122-0.011,8.245-0.049,12.366,0.017c2.124,0.034,3.164-1.031,3.706-2.951
			c0.758-2.681,1.879-5.185,4.225-6.898c2.777-2.029,5.265-1.402,6.745,1.666c2.544,5.27-1.507,14.37-7.304,14.919
			c-4.484,0.424-5.711,2.429-5.861,6.243c-0.045,1.114-0.212,2.258-0.546,3.32c-1.051,3.348-0.158,5.031,3.61,4.756
			c2.368-0.174,4.081,1.063,5.09,3.151c2.263,4.687-0.633,13.45-5.201,15.899c-3.521,1.889-6.747,0.218-7.578-3.683
			c-0.498-2.333,1.268-5.421-1.376-6.905c-2.145-1.203-4.906-0.33-7.392-0.437c-1.122-0.048-2.248-0.009-3.373-0.008
			C566.614,71.902,566.452,72.063,566.438,78.758z M199.133,66.97c0,3.495-0.001,6.991,0,10.485
			c0.006,14.396,6.646,21.018,21.096,21.041c9.588,0.016,9.982-0.519,10.071-10.199c0.031-3.394-1.001-4.664-4.466-4.559
			c-4.69,0.144-5.464-0.741-5.5-5.394c-0.064-8.237,0.059-16.478-0.067-24.715c-0.044-2.85,0.833-3.93,3.843-3.974
			c5.333-0.078,6.02-1.761,6.206-9.52c0.122-5.064-3.199-4.183-6.013-4.076c-3.187,0.122-4.169-1.259-4.033-4.249
			c0.165-3.612-0.032-7.239,0.045-10.857c0.053-2.499-0.989-3.698-3.529-3.677c-4.619,0.039-9.238,0.049-13.855-0.016
			c-2.647-0.037-3.902,1.045-3.812,3.791c0.107,3.242-0.079,6.494,0.041,9.735c0.111,3.002,0.026,5.634-4.095,5.405
			c-0.511-0.028-1.217,0.417-1.558,0.857c-1.48,1.904-0.421,10.928,1.699,11.471c4.814,1.233,3.892,4.719,3.92,7.965
			C199.156,59.979,199.133,63.475,199.133,66.97z"/>
		<path fill-rule="evenodd" class="textSVG" clip-rule="evenodd" d="M479.641,62.81c-3.572,6.847-7.162,13.684-10.711,20.542
			c-3.123,6.035-9.671,8.688-16.137,6.576c-2.058-0.673-1.953-2.462-2.205-3.963c-1.179-7.019-2.23-14.059-3.341-21.088
			c-0.213-1.345-0.481-2.681-0.92-5.104c-1.709,9.749-3.271,18.423-4.741,27.111c-1.385,8.191-3.588,10.104-11.928,10.113
			c-9.236,0.009-9.145,0.025-7.507-9.118c3.896-21.757,7.753-43.521,11.473-65.308c0.521-3.048,1.614-4.319,4.807-4.15
			c4.486,0.237,8.998,0.176,13.491,0.018c2.658-0.094,3.742,0.933,4.174,3.539c1.837,11.086,3.848,22.144,5.803,33.211
			c0.316,1.793,0.673,3.579,1.848,5.515c1.182-2.128,2.403-4.233,3.537-6.385c5.707-10.833,11.456-21.645,17.03-32.545
			c1.258-2.459,2.806-3.462,5.558-3.345c4.491,0.19,9.004,0.22,13.492-0.006c3.149-0.159,3.906,0.996,3.371,3.93
			c-2.624,14.372-5.148,28.763-7.698,43.15c-1.394,7.869-2.746,15.745-4.157,23.611c-0.94,5.243-3.932,7.747-9.29,7.876
			c-0.499,0.012-1,0.004-1.499,0.006c-10.008,0.033-9.958,0.043-8.088-9.996c1.483-7.967,2.825-15.959,4.23-23.939
			C480.035,62.977,479.838,62.894,479.641,62.81z"/>
		<path fill-rule="evenodd" class="textSVG" clip-rule="evenodd" d="M320.884,24.441c0.005,3.246,0.024,6.491-0.003,9.737
			c-0.016,1.813,0.02,2.874,2.454,1.725c12.084-5.701,24.096-0.754,28.263,11.802c4.208,12.686,4.234,25.587,0.138,38.284
			c-3.829,11.86-17.314,17.361-28.644,12.016c-1.592-0.751-2.759-1.484-4.032,0.464c-0.333,0.511-1.608,0.552-2.453,0.56
			c-5.118,0.048-10.235,0.021-15.354,0.027c-2.13,0.002-3.303-0.656-2.757-3.149c1.728-7.888,1.078-15.91,1.104-23.883
			c0.063-18.6,0.01-37.199,0.029-55.799c0.004-4.597,0.325-4.91,4.864-4.95c4.245-0.038,8.49,0.064,12.732-0.023
			c2.732-0.056,3.813,1.111,3.688,3.83C320.77,18.195,320.88,21.321,320.884,24.441z M333.32,67.64
			c0.048-4.858-0.024-9.105-1.455-13.169c-0.844-2.397-1.884-4.865-4.997-4.747c-2.875,0.108-3.985,2.439-4.59,4.755
			c-2.113,8.105-2.109,16.277-0.014,24.382c0.628,2.43,1.775,4.953,4.869,4.89c3.199-0.064,4.335-2.645,5.049-5.226
			C333.218,74.777,333.423,70.909,333.32,67.64z"/>
		<path fill-rule="evenodd" class="textSVG" clip-rule="evenodd" d="M188.89,66.402c0,9.362-0.108,18.726,0.063,28.085
			c0.054,2.952-0.893,4.052-3.819,3.955c-4.365-0.144-8.738-0.019-13.107-0.053c-0.858-0.007-2.228,0.08-2.492-0.377
			c-1.866-3.235-3.849-1.187-5.819-0.313c-12.04,5.347-26.731-2.547-29.09-15.642c-0.599-3.325-0.771-6.678-0.755-10.061
			c0.055-11.235,0.135-22.473-0.043-33.706c-0.057-3.64,1.256-4.894,4.796-4.689c3.857,0.223,7.749,0.237,11.604-0.004
			c3.682-0.23,5.083,0.977,5.005,4.851c-0.22,11.106-0.064,22.22-0.083,33.331c-0.004,2.644,0.155,5.262,1.234,7.705
			c0.956,2.165,2.472,3.922,5.01,3.923c2.416,0.001,3.731-1.759,4.648-3.799c1.147-2.552,1.518-5.242,1.512-8.025
			c-0.024-10.985-0.018-21.972-0.002-32.958c0.007-4.846,0.125-4.947,5.117-4.971c3.62-0.017,7.241-0.019,10.861,0.001
			c4.851,0.027,5.148,0.287,5.164,5.031c0.031,9.238,0.009,18.477,0.009,27.715C188.765,66.402,188.828,66.402,188.89,66.402z"/>
		<path fill-rule="evenodd" class="textSVG" clip-rule="evenodd" d="M290.218,61.496c0.072,10.856-0.337,21.726,0.635,32.558
			c0.29,3.237-0.695,4.583-4.079,4.405c-4.109-0.216-8.238-0.029-12.358-0.062c-1.586-0.013-3.287,0.269-4.192-1.664
			c-0.69-1.473-1.649-0.464-2.491-0.081c-15.61,7.102-30.773-1.473-31.67-18.573c-0.718-13.699-0.194-27.461-0.277-41.195
			c-0.015-2.498,1.253-3.251,3.498-3.231c4.619,0.043,9.244,0.127,13.858-0.036c3.168-0.112,4.073,1.27,4.045,4.259
			c-0.111,11.611-0.032,23.224-0.047,34.836c-0.004,2.657,0.268,5.258,1.606,7.6c0.957,1.676,2.301,3.13,4.349,3.169
			c2.225,0.044,3.666-1.426,4.607-3.314c1.365-2.738,1.76-5.688,1.754-8.723c-0.018-11.113,0.117-22.228-0.076-33.336
			c-0.062-3.518,1.208-4.651,4.549-4.496c3.987,0.185,7.995,0.179,11.983,0.002c3.185-0.141,4.456,0.938,4.373,4.286
			C290.089,45.761,290.223,53.63,290.218,61.496z"/>
		<path fill-rule="evenodd" class="textSVG" clip-rule="evenodd" d="M512.029,96.996c-7.411,0.001-7.462-0.008-6.165-7.404
			c3.945-22.507,7.97-45,11.859-67.516c0.48-2.781,1.711-3.686,4.474-3.646c9.37,0.135,18.744,0.001,28.115,0.063
			c13.827,0.091,22.39,10.528,19.965,24.241c-2.755,15.582-13.841,24.71-30.921,25.458c-0.25,0.011-0.499,0.011-0.75,0.017
			c-9.958,0.232-9.941,0.234-11.479,9.968c-0.546,3.453-1.13,6.903-1.813,10.332c-1.254,6.306-3.879,8.433-10.286,8.484
			C514.029,97.003,513.028,96.996,512.029,96.996z M537.99,52.973c0.624,0,1.254-0.053,1.871,0.008
			c8.835,0.873,12.697-9.073,10.507-16.236c-0.414-1.351-1.402-2.469-2.767-2.887c-3.776-1.158-7.661-0.648-11.492-0.363
			c-1.332,0.099-1.356,1.583-1.554,2.691c-0.612,3.438-1.326,6.861-1.858,10.312C531.578,53.752,530.675,52.894,537.99,52.973z"/>
		<path fill-rule="evenodd" class="textSVG" clip-rule="evenodd" d="M38.897,40.435c3.627-9.027,7.028-17.066,10.06-25.243
			c1.209-3.261,3.002-4.411,6.396-4.192c4.229,0.273,8.489,0.048,12.734,0.07c4.659,0.023,4.789,0.256,2.761,4.624
			C64.275,29.85,57.732,44.02,51.097,58.146c-1.255,2.673-1.837,5.36-1.798,8.306c0.095,7.242,0.042,14.486,0.027,21.73
			c-0.016,7.734-2.541,10.206-10.411,10.229c-1.499,0.004-2.998,0.002-4.496,0c-6.26-0.005-6.262-0.005-6.264-6.456
			c-0.003-8.493-0.072-16.987,0.036-25.479c0.039-3.086-0.638-5.872-1.942-8.65C19.614,43.7,13.066,29.533,6.499,15.375
			c-1.862-4.014-1.682-4.283,2.877-4.305c4.496-0.021,8.998,0.139,13.486-0.054c2.82-0.122,4.311,0.977,5.339,3.549
			C31.534,22.896,35.044,31.155,38.897,40.435z"/>
		<path fill-rule="evenodd" class="textSVG" clip-rule="evenodd" d="M72.411,66.317c-0.135-4.679,0.477-9.001,1.465-13.27
			c3.444-14.875,14.81-20.745,28.067-19.93c15.616,0.96,24.15,10.066,25.522,25.662c0.574,6.521,0.555,12.969-0.753,19.368
			c-2.733,13.372-8.843,19.396-22.433,20.635c-18.832,1.718-28.262-6.399-31.003-22.311C72.685,73.041,72.175,69.56,72.411,66.317z
			 M93.578,65.533c-0.005,4.881,0.056,9.759,2.222,14.292c0.902,1.887,2.183,3.367,4.549,3.285c2.167-0.075,3.533-1.39,4.176-3.231
			c3.146-9.001,3.273-18.079,0.189-27.118c-0.703-2.06-2.084-3.78-4.592-3.813c-2.73-0.036-3.925,1.952-4.792,4.07
			C93.691,57.023,93.547,61.275,93.578,65.533z"/>
		<path fill-rule="evenodd" class="textSVG" clip-rule="evenodd" d="M397.201,71.422c-4.868,0-9.738,0.083-14.605-0.031
			c-2.83-0.066-3.526,1.197-2.898,3.709c0.606,2.426,1.116,4.866,2.97,6.757c3.498,3.567,9.215,2.813,11.162-1.756
			c0.896-2.104,2.063-2.873,4.183-2.85c4.619,0.053,9.239,0.054,13.857,0.005c2.851-0.029,3.804,1.091,2.99,3.942
			c-2.835,9.94-10.088,14.858-19.549,16.987c-19.707,4.435-35.497-7.691-36.524-27.907c-0.273-5.367-0.242-10.724,1.166-15.99
			c3.625-13.556,14.313-21.863,27.561-21.345c14.14,0.554,24.521,9.539,27.155,23.402c0.729,3.839,0.63,7.696,0.722,11.563
			c0.062,2.586-1.052,3.57-3.582,3.522c-4.866-0.091-9.736-0.026-14.606-0.026C397.201,71.41,397.201,71.416,397.201,71.422z
			 M386.832,59.144c1.498,0,3.002-0.087,4.493,0.021c2.503,0.179,3.373-0.761,2.87-3.302c-0.421-2.126-0.936-4.16-2.37-5.81
			c-2.003-2.306-4.437-3.18-7.361-1.815c-2.686,1.252-5.886,7.184-4.79,9.49c1.271,2.674,4.003,0.948,6.037,1.411
			C386.067,59.218,386.458,59.148,386.832,59.144z"/>
		<path fill-rule="evenodd" class="textSVG" clip-rule="evenodd" d="M566.438,78.758c0.014-6.694,0.176-6.855,6.931-6.86
			c1.125-0.001,2.251-0.04,3.373,0.008c2.485,0.106,5.247-0.767,7.392,0.437c2.644,1.484,0.878,4.572,1.376,6.905
			c0.831,3.9,4.057,5.571,7.578,3.683c4.568-2.449,7.464-11.213,5.201-15.899c-1.009-2.089-2.722-3.325-5.09-3.151
			c-3.769,0.275-4.661-1.408-3.61-4.756c0.334-1.062,0.501-2.206,0.546-3.32c0.15-3.814,1.377-5.818,5.861-6.243
			c5.797-0.549,9.848-9.649,7.304-14.919c-1.48-3.068-3.968-3.695-6.745-1.666c-2.346,1.714-3.467,4.217-4.225,6.898
			c-0.542,1.92-1.582,2.985-3.706,2.951c-4.121-0.066-8.244-0.028-12.366-0.017c-2.297,0.006-2.988-0.91-2.537-3.285
			c3.182-16.736,22.862-27.142,38.492-20.265c7.87,3.463,11.87,12.006,9.792,21.317c-1.318,5.914-4.257,10.9-9.274,14.492
			c-1.008,0.723-2.354,1.085-0.701,2.673c9.245,8.88,5.509,22.253-0.728,29.98c-7.706,9.547-22.721,13.241-34.117,8.641
			C570,93.46,566.421,87.598,566.438,78.758z"/>
		<path fill-rule="evenodd" class="textSVG" clip-rule="evenodd" d="M199.133,66.97c0-3.495,0.023-6.99-0.007-10.485
			c-0.028-3.246,0.894-6.732-3.92-7.965c-2.12-0.543-3.179-9.566-1.699-11.471c0.341-0.439,1.047-0.885,1.558-0.857
			c4.122,0.229,4.206-2.402,4.095-5.405c-0.12-3.241,0.066-6.493-0.041-9.735c-0.091-2.746,1.164-3.828,3.812-3.791
			c4.618,0.065,9.237,0.055,13.855,0.016c2.54-0.021,3.582,1.178,3.529,3.677c-0.077,3.618,0.12,7.245-0.045,10.857
			c-0.136,2.99,0.846,4.371,4.033,4.249c2.814-0.107,6.135-0.989,6.013,4.076c-0.186,7.759-0.873,9.442-6.206,9.52
			c-3.01,0.044-3.887,1.124-3.843,3.974c0.126,8.238,0.003,16.478,0.067,24.715c0.037,4.652,0.81,5.537,5.5,5.394
			c3.464-0.105,4.497,1.165,4.466,4.559c-0.089,9.681-0.483,10.215-10.071,10.199c-14.45-0.023-21.09-6.645-21.096-21.041
			C199.131,73.961,199.133,70.465,199.133,66.97z"/>
		<path fill-rule="evenodd" clip-rule="evenodd" fill="none" d="M333.32,67.64c0.103,3.27-0.103,7.138-1.138,10.885
			c-0.714,2.581-1.85,5.161-5.049,5.226c-3.094,0.063-4.241-2.46-4.869-4.89c-2.096-8.104-2.1-16.276,0.014-24.382
			c0.604-2.316,1.715-4.647,4.59-4.755c3.113-0.118,4.153,2.35,4.997,4.747C333.296,58.534,333.368,62.781,333.32,67.64z"/>
		<path fill-rule="evenodd" clip-rule="evenodd" fill="none" d="M537.99,52.974c-7.315-0.08-6.412,0.778-5.293-6.477
			c0.532-3.451,1.246-6.873,1.858-10.312c0.197-1.108,0.222-2.593,1.554-2.691c3.831-0.285,7.716-0.794,11.492,0.363
			c1.364,0.418,2.353,1.537,2.767,2.887c2.19,7.164-1.672,17.109-10.507,16.236C539.244,52.92,538.614,52.973,537.99,52.974z"/>
		<path fill-rule="evenodd" clip-rule="evenodd" fill="none" d="M93.582,65.534c-0.035-4.259,0.109-8.511,1.748-12.516
			c0.868-2.118,2.062-4.106,4.792-4.07c2.508,0.033,3.89,1.753,4.592,3.813c3.084,9.039,2.957,18.117-0.189,27.118
			c-0.644,1.842-2.009,3.156-4.176,3.231c-2.366,0.082-3.647-1.398-4.549-3.285C93.634,75.292,93.573,70.414,93.582,65.534z"/>
		<path fill-rule="evenodd" clip-rule="evenodd" fill="none" d="M386.832,59.146c-0.374,0.002-0.765,0.071-1.121-0.009
			c-2.034-0.463-4.767,1.263-6.037-1.411c-1.096-2.306,2.104-8.238,4.79-9.49c2.925-1.364,5.358-0.49,7.361,1.815
			c1.435,1.65,1.949,3.684,2.37,5.81c0.503,2.542-0.367,3.481-2.87,3.302C389.834,59.057,388.33,59.144,386.832,59.146z"/>
	</g>
</g>
</svg>
